
<svg width="82" height="94" viewBox="0 0 82 94" fill="none" xmlns="http://www.w3.org/2000/svg">
  <g clip-path="url(#clip0_32_4)">
    <path d="M60.7473 45.6131C60.7473 37.0051 58.8969 27.8529 55.537 19.8427C52.0542 11.5395 47.2757 5.00985 41.7181 0.959232C41.2807 0.640461 40.7193 0.640461 40.282 0.959232C34.7244 5.00985 29.9459 11.5395 26.4633 19.8427C23.1031 27.8529 21.2527 37.0051 21.2527 45.6131C21.2527 61.5107 27.4517 74.2117 39.6717 83.3821V92.2135C39.6717 93.0455 40.2664 93.72 41 93.72C41.7336 93.72 42.3283 93.0455 42.3283 92.2135V83.3821C54.5481 74.2119 60.7473 61.5107 60.7473 45.6131ZM23.9093 45.6131C23.9093 43.2682 24.0549 40.8801 24.3372 38.4868L39.6717 55.8784V66.0797L23.976 48.2784C23.9334 47.4 23.9093 46.5124 23.9093 45.6131ZM26.8039 26.8223L39.6717 41.4162V51.6175L24.8734 34.8341C25.3491 32.1271 25.9966 29.4383 26.8039 26.8223ZM51.861 18.3117C51.8536 18.3197 51.8456 18.3267 51.8382 18.335L42.3283 29.1208V18.9195L48.3171 12.1273C49.5965 14.0238 50.7856 16.0957 51.861 18.3117ZM57.8613 40.4284L42.3283 58.0452V47.8439L56.5106 31.7591C57.1559 34.627 57.6106 37.539 57.8613 40.4284ZM42.3283 62.3061L58.0776 44.4443C58.0856 44.8347 58.0907 45.2246 58.0907 45.6131C58.0907 49.1605 57.756 52.5473 57.0964 55.7583L42.3283 72.5074V62.3061ZM55.6752 28.4489C55.6656 28.4591 55.6553 28.4682 55.6459 28.4788L42.3283 43.583V33.3817L53.1337 21.1268C53.1351 21.1302 53.1365 21.1334 53.1379 21.1368C54.1237 23.4871 54.9724 25.9403 55.6752 28.4489ZM46.6238 9.7868L42.3283 14.6586V5.14845C43.8254 6.48098 45.2649 8.03868 46.6238 9.7868ZM39.6717 5.14845V22.6931L32.2901 14.3213C34.4738 10.666 36.98 7.54436 39.6717 5.14845ZM30.8338 16.9305L39.6717 26.954V37.1553L27.8426 23.7394C28.1644 22.86 28.5038 21.9913 28.8622 21.1368C29.4727 19.681 30.1324 18.2769 30.8338 16.9305ZM28.8009 66.7462C26.61 62.6132 25.1511 58.0287 24.4323 53.0569L39.6717 70.3406V79.7276C35.0333 75.9688 31.3808 71.6129 28.8009 66.7462ZM42.3283 79.7276V76.7683L55.2997 62.057C54.6961 63.6776 53.9964 65.2421 53.199 66.7462C50.6191 71.6129 46.9667 75.969 42.3283 79.7276Z" fill="black"/>
  </g>
  <defs>
    <clipPath id="clip0_32_4">
      <rect width="82" height="93" fill="white" transform="translate(0 0.720032)"/>
    </clipPath>
  </defs>
</svg>